<svg xmlns="http://www.w3.org/2000/svg" width="63" height="63" viewBox="0 0 63 63">
  <g id="Group_41" data-name="Group 41" transform="translate(-1600 -7095)">
    <g id="_001-twitter" data-name="001-twitter" transform="translate(1621 7118)">
      <g id="Group_35" data-name="Group 35" transform="translate(0 0)">
        <path id="Path_6958" data-name="Path 6958" d="M21.721,50.089a9.284,9.284,0,0,1-2.566.7,4.428,4.428,0,0,0,1.959-2.461,8.9,8.9,0,0,1-2.824,1.078,4.453,4.453,0,0,0-7.7,3.045,4.585,4.585,0,0,0,.1,1.015,12.6,12.6,0,0,1-9.178-4.658,4.454,4.454,0,0,0,1.368,5.951,4.4,4.4,0,0,1-2.012-.548v.049a4.473,4.473,0,0,0,3.568,4.375,4.444,4.444,0,0,1-1.167.147,3.937,3.937,0,0,1-.843-.076,4.5,4.5,0,0,0,4.161,3.1,8.947,8.947,0,0,1-5.521,1.9A8.339,8.339,0,0,1,0,63.65a12.536,12.536,0,0,0,6.831,2A12.587,12.587,0,0,0,19.505,52.977c0-.2-.007-.387-.016-.576A8.883,8.883,0,0,0,21.721,50.089Z" transform="translate(0 -48)" fill="#6acece"/>
      </g>
    </g>
    <g id="Ellipse_722" data-name="Ellipse 722" transform="translate(1600 7095)" fill="none" stroke="#6acece" stroke-width="1">
      <circle cx="31.5" cy="31.5" r="31.5" stroke="none"/>
      <circle cx="31.5" cy="31.5" r="31" fill="none"/>
    </g>
  </g>
</svg>
