<svg xmlns="http://www.w3.org/2000/svg" width="63" height="63" viewBox="0 0 63 63">
  <g id="Group_40" data-name="Group 40" transform="translate(-1519 -7095)">
    <g id="_002-google-plus" data-name="002-google-plus" transform="translate(1538 7119)">
      <g id="Group_37" data-name="Group 37" transform="translate(17.123 3.113)">
        <g id="Group_36" data-name="Group 36">
          <path id="Path_6959" data-name="Path 6959" d="M356.67,163.113V160h-1.557v3.113H352v1.557h3.113v3.113h1.557V164.67h3.113v-1.557Z" transform="translate(-352 -160)" fill="#6acece"/>
        </g>
      </g>
      <g id="Group_39" data-name="Group 39" transform="translate(0 0)">
        <g id="Group_38" data-name="Group 38">
          <path id="Path_6960" data-name="Path 6960" d="M7.783,102.227v3.113h4.4a4.67,4.67,0,1,1-4.4-6.227,4.6,4.6,0,0,1,3.025,1.127l2.045-2.347A7.713,7.713,0,0,0,7.783,96a7.783,7.783,0,1,0,7.783,7.783v-1.557Z" transform="translate(0 -96)" fill="#6acece"/>
        </g>
      </g>
    </g>
    <g id="Ellipse_721" data-name="Ellipse 721" transform="translate(1519 7095)" fill="none" stroke="#6acece" stroke-width="1">
      <circle cx="31.5" cy="31.5" r="31.5" stroke="none"/>
      <circle cx="31.5" cy="31.5" r="31" fill="none"/>
    </g>
  </g>
</svg>
